<?xml version="1.0" standalone="no"?>
<!DOCTYPE svg PUBLIC "-//W3C//DTD SVG 20010904//EN"
 "http://www.w3.org/TR/2001/REC-SVG-20010904/DTD/svg10.dtd">
<svg version="1.0" xmlns="http://www.w3.org/2000/svg"
 width="891.000000pt" height="280.000000pt" viewBox="0 0 891.000000 280.000000"
 preserveAspectRatio="xMidYMid meet">

<g transform="translate(0.000000,280.000000) scale(0.100000,-0.100000)"
fill="#000000" stroke="none">
<path d="M2880 1425 c0 -1058 0 -1065 20 -1065 20 0 20 7 20 1065 0 1058 0
1065 -20 1065 -20 0 -20 -7 -20 -1065z"/>
<path d="M1380 2386 c-115 -30 -252 -151 -290 -255 -23 -60 -36 -188 -26 -243
6 -35 7 -36 217 -128 l211 -92 132 56 c202 87 279 128 294 156 21 41 9 173
-22 243 -27 63 -85 140 -132 180 -94 78 -265 116 -384 83z"/>
<path d="M3478 2267 c-122 -42 -215 -125 -233 -208 -10 -43 11 -86 47 -98 44
-15 44 -16 40 35 -8 90 44 176 132 222 43 22 64 26 134 27 79 0 85 -2 107 -27
33 -39 41 -129 21 -243 -39 -230 -171 -403 -233 -308 -13 20 -17 45 -15 107 3
141 62 320 131 399 l33 37 -42 0 c-60 0 -106 -26 -150 -84 -71 -94 -111 -222
-112 -361 -2 -142 50 -199 179 -197 78 1 138 27 195 84 84 84 136 210 145 353
10 151 -26 230 -119 269 -57 24 -178 20 -260 -7z"/>
<path d="M6345 2276 c-138 -44 -225 -134 -225 -234 0 -48 2 -54 33 -72 50 -31
56 -27 50 33 -4 42 -1 64 16 103 40 90 103 133 208 142 75 6 115 -8 146 -52
20 -28 22 -43 22 -151 0 -133 -13 -200 -56 -292 -35 -73 -78 -113 -122 -113
-66 0 -66 -5 -8 267 29 136 55 259 58 272 6 23 5 23 -58 16 -35 -4 -67 -10
-71 -14 -3 -3 -34 -134 -68 -291 -33 -157 -63 -293 -66 -302 -5 -16 3 -18 65
-18 56 0 71 3 71 15 0 20 13 19 52 -5 67 -41 156 -15 219 62 45 57 96 173 110
253 16 93 7 220 -19 270 -26 50 -67 90 -114 109 -46 19 -185 20 -243 2z"/>
<path d="M4018 2233 c-32 -4 -39 -9 -44 -31 -3 -15 -10 -43 -14 -62 -5 -19
-32 -145 -60 -280 -28 -135 -53 -255 -57 -267 -5 -22 -3 -23 64 -23 l70 0 23
120 c23 122 29 133 83 153 25 9 61 -28 53 -56 -25 -91 -15 -187 22 -202 76
-31 138 -22 183 26 30 32 39 36 39 16 0 -19 40 -53 71 -61 38 -9 88 11 132 52
25 25 37 31 37 20 0 -26 38 -65 69 -71 37 -8 91 7 126 35 l28 22 -5 -27 -5
-27 67 0 68 0 16 73 c8 39 23 110 32 157 22 108 46 158 81 166 31 8 55 -17 48
-50 -19 -95 -67 -314 -71 -328 -5 -16 3 -18 65 -18 l70 0 11 58 c32 156 61
275 75 302 20 38 62 51 82 25 17 -25 16 -45 -6 -140 -32 -134 -33 -156 -14
-195 35 -68 134 -73 207 -10 l33 29 21 -29 c46 -61 136 -59 202 5 l37 36 13
-32 c28 -68 122 -71 196 -7 33 29 74 94 74 118 0 17 -30 11 -37 -7 -16 -45
-45 -73 -74 -73 -51 0 -50 17 5 275 14 65 26 120 26 122 0 2 -31 3 -70 3 -58
0 -70 -3 -70 -17 0 -14 -2 -14 -20 2 -28 25 -104 24 -156 -3 -74 -38 -139
-151 -153 -266 -5 -47 -14 -73 -28 -88 -20 -19 -66 -28 -80 -14 -11 11 -4 73
17 155 42 166 18 230 -86 231 -51 0 -89 -19 -120 -59 -10 -12 -14 -10 -28 17
-11 22 -27 34 -54 41 -43 12 -102 0 -122 -24 -18 -21 -32 -18 -25 5 6 19 2 20
-63 20 l-69 0 -18 -87 c-50 -247 -64 -286 -108 -302 -30 -12 -57 5 -57 34 0
23 54 300 66 337 5 16 -2 18 -64 18 l-70 0 -10 -47 c-6 -27 -20 -98 -32 -160
-24 -119 -46 -169 -83 -182 -57 -21 -59 13 -16 212 16 78 32 150 35 160 5 15
-3 17 -64 17 l-69 0 -23 -107 c-39 -192 -47 -222 -64 -248 -19 -29 -51 -44
-79 -37 -17 4 -18 12 -11 103 l7 98 -31 31 c-23 23 -40 30 -68 30 l-37 0 89
61 c49 34 91 63 93 65 2 2 -16 4 -40 4 -40 0 -53 -7 -134 -70 -49 -39 -91 -67
-93 -62 -2 8 52 276 63 310 4 12 -16 13 -97 5z m1875 -248 c13 -13 12 -30 -13
-146 -30 -144 -52 -181 -105 -181 -39 0 -46 17 -42 102 7 152 101 284 160 225z"/>
<path d="M7680 2191 c-33 -6 -35 -8 -48 -73 -11 -49 -19 -68 -33 -71 -23 -6
-26 -27 -4 -27 19 0 20 8 -14 -144 -24 -109 -33 -134 -55 -153 -15 -13 -31
-23 -35 -23 -5 0 -11 60 -15 133 -4 72 -9 158 -13 190 l-6 58 -56 -7 c-74 -9
-81 -13 -100 -69 -14 -39 -24 -52 -61 -71 -25 -13 -59 -26 -76 -30 -30 -6 -32
-4 -38 33 -11 64 -26 91 -61 107 -122 58 -268 -48 -309 -224 -29 -121 -15
-192 46 -230 27 -17 46 -20 100 -18 57 3 72 8 105 34 55 45 93 111 106 187 11
64 12 66 46 72 19 4 48 13 64 22 16 8 31 13 33 11 7 -8 -48 -112 -76 -145 -64
-72 -22 -164 85 -187 49 -10 125 16 201 71 l71 51 14 -47 c11 -37 21 -49 51
-64 35 -17 41 -17 91 -3 29 8 64 27 77 41 29 31 34 31 48 -1 30 -64 137 -63
198 2 l31 35 13 -32 c25 -60 112 -71 186 -23 23 16 61 70 82 117 19 43 -19 36
-43 -9 -22 -41 -57 -59 -86 -44 -25 14 -25 21 16 211 19 90 35 168 35 172 0 4
-30 7 -67 5 -66 -3 -67 -4 -74 -33 -3 -16 -18 -88 -33 -160 -16 -71 -35 -142
-44 -157 -21 -36 -55 -51 -78 -34 -20 15 -21 5 30 254 15 68 26 125 26 128 0
3 -30 4 -67 2 l-67 -3 -34 -160 c-42 -199 -73 -249 -140 -224 -29 11 -28 23
12 204 l33 150 31 3 c40 4 44 32 6 32 -29 0 -29 -1 -8 113 7 37 7 37 -27 36
-19 -1 -50 -4 -69 -8z m-632 -219 c2 -12 -4 -29 -12 -38 -20 -20 -20 -53 -1
-74 13 -15 13 -23 -1 -71 -29 -100 -71 -147 -119 -135 -32 8 -41 56 -26 137
11 64 51 161 78 192 24 26 77 19 81 -11z m291 -280 c-12 -38 -35 -52 -83 -52
-25 0 -38 6 -46 19 -16 31 -12 41 15 41 30 0 48 35 33 64 -7 14 -3 35 20 85
16 36 33 75 37 86 14 34 37 -203 24 -243z"/>
<path d="M542 1968 c-7 -7 -12 -28 -12 -47 0 -31 55 -366 65 -398 4 -13 60 -2
78 16 5 5 2 56 -8 125 -17 118 -15 163 8 172 12 4 104 -34 452 -186 140 -61
296 -133 313 -143 9 -6 12 -121 12 -518 0 -280 -2 -509 -3 -509 -6 0 -457 244
-543 293 -91 53 -94 58 -116 200 l-13 78 -40 -3 -40 -3 2 -68 c0 -38 9 -100
18 -138 22 -88 -13 -63 440 -313 66 -37 170 -92 231 -123 l111 -57 129 68
c210 110 578 316 608 339 23 19 30 38 51 152 14 71 25 133 25 138 0 9 -86 4
-96 -5 -2 -3 -11 -44 -20 -92 -22 -126 -23 -128 -111 -176 -43 -24 -100 -55
-128 -70 -74 -41 -324 -174 -372 -199 l-43 -21 0 513 0 514 188 83 c278 123
470 205 531 225 47 15 55 16 68 2 13 -13 13 -29 -3 -141 -12 -83 -15 -129 -8
-136 5 -5 24 -12 41 -16 25 -5 32 -2 37 12 15 48 56 324 56 375 0 58 -8 69
-46 69 -19 0 -270 -106 -630 -266 l-281 -125 -44 19 c-267 120 -498 223 -624
277 -234 100 -258 108 -283 83z"/>
<path d="M2245 1461 c-73 -18 -122 -77 -131 -158 -11 -96 53 -171 156 -181 63
-6 100 10 146 60 36 40 36 41 32 119 -3 70 -6 81 -33 109 -24 25 -111 63 -134
59 -3 -1 -20 -4 -36 -8z"/>
<path d="M608 1435 c-110 -75 -104 -231 12 -293 152 -81 321 82 238 230 -48
85 -172 116 -250 63z"/>
<path d="M3770 1050 c-17 -5 -19 -8 -7 -9 15 -1 17 -15 17 -154 0 -138 2 -153
18 -155 9 -1 38 -5 64 -8 45 -6 50 -4 83 29 31 31 35 41 35 87 0 44 -4 56 -29
81 -23 23 -38 29 -68 28 -27 -1 -31 -3 -13 -6 57 -11 91 -84 70 -149 -16 -47
-36 -64 -74 -64 -48 0 -56 14 -56 107 0 67 3 84 18 93 16 11 16 11 0 6 -16 -5
-18 2 -18 59 0 36 -3 65 -7 64 -5 -1 -19 -5 -33 -9z"/>
<path d="M6620 1047 c0 -19 16 -31 24 -18 3 5 -1 14 -9 21 -12 10 -15 10 -15
-3z"/>
<path d="M4511 904 c-1 -81 -6 -155 -12 -165 -8 -16 -6 -19 13 -19 21 0 23 5
26 57 2 32 6 60 8 63 3 3 18 -9 32 -26 15 -17 39 -45 55 -62 15 -19 37 -32 50
-32 l22 0 -20 18 c-28 23 -95 108 -95 120 0 5 18 26 40 46 22 20 36 36 30 36
-5 0 -28 -20 -51 -45 -61 -66 -69 -61 -69 39 0 46 -3 91 -6 100 -16 41 -22 4
-23 -130z"/>
<path d="M6539 1029 c-7 -14 -11 -70 -10 -150 1 -77 -3 -130 -9 -134 -18 -11
-10 -26 13 -23 22 3 22 6 27 166 3 89 2 162 -2 162 -4 0 -12 -10 -19 -21z"/>
<path d="M4060 1025 c0 -8 7 -15 15 -15 8 0 15 7 15 15 0 8 -7 15 -15 15 -8 0
-15 -7 -15 -15z"/>
<path d="M5984 1019 c-5 -8 -11 -76 -14 -152 -4 -122 -3 -137 11 -137 25 0 29
21 28 148 0 124 -8 167 -25 141z"/>
<path d="M4903 987 c-7 -15 -23 -32 -35 -37 l-23 -9 23 0 c21 -1 22 -4 22 -92
0 -50 5 -99 10 -110 15 -26 71 -26 95 1 19 21 19 21 -10 6 -20 -10 -34 -12
-46 -5 -16 8 -19 26 -21 142 -3 114 -5 128 -15 104z"/>
<path d="M6360 1001 c0 -6 -11 -23 -25 -36 -16 -17 -20 -25 -10 -25 12 0 15
-18 15 -93 0 -78 3 -97 18 -110 23 -21 66 -22 86 -1 23 22 20 28 -6 10 -28
-20 -33 -20 -52 0 -13 13 -16 38 -15 136 0 66 -2 122 -5 125 -3 4 -6 1 -6 -6z"/>
<path d="M4055 940 c-16 -4 -22 -8 -12 -9 17 -1 18 -10 15 -101 -3 -90 -1
-100 15 -100 15 0 17 12 17 110 0 61 -1 109 -2 109 -2 -1 -16 -5 -33 -9z"/>
<path d="M4180 940 c-18 -6 -20 -8 -7 -9 17 -1 18 -10 15 -101 -3 -89 -1 -100
14 -100 15 0 18 13 20 86 3 82 5 88 31 108 28 21 29 21 43 2 10 -15 17 -17 25
-9 6 6 8 16 5 22 -11 18 -51 13 -80 -10 l-26 -20 0 20 c0 23 -2 23 -40 11z"/>
<path d="M4755 940 c-16 -4 -22 -8 -12 -9 15 -1 17 -13 17 -94 0 -59 -4 -97
-12 -105 -9 -9 -6 -12 15 -12 l27 0 0 115 c0 63 -1 114 -2 114 -2 -1 -16 -5
-33 -9z"/>
<path d="M5069 932 c-15 -13 -20 -25 -16 -36 8 -21 29 -11 25 12 -2 9 8 22 22
29 17 8 19 13 9 13 -9 0 -27 -8 -40 -18z"/>
<path d="M5148 940 c20 -9 22 -15 22 -99 0 -112 4 -121 44 -120 23 1 25 3 9 6
-22 4 -23 9 -23 103 0 88 -2 100 -19 110 -11 5 -28 10 -38 9 -15 0 -14 -2 5
-9z"/>
<path d="M5295 939 c-16 -4 -22 -7 -12 -8 17 -1 18 -13 15 -161 -3 -147 -2
-160 15 -160 14 0 17 9 17 59 l0 59 41 -5 c77 -11 133 41 133 123 0 64 -41
105 -102 103 -25 0 -25 -1 8 -12 89 -30 72 -207 -19 -207 -58 0 -61 5 -61 97
0 70 3 89 18 100 9 8 11 11 3 7 -7 -3 -16 -2 -20 3 -3 5 -19 6 -36 2z"/>
<path d="M5695 939 c-16 -4 -22 -7 -12 -8 17 -1 18 -12 15 -161 -3 -147 -2
-160 15 -160 14 0 17 9 17 59 l0 58 48 -5 c41 -3 52 0 80 23 84 71 46 208 -58
204 -27 -1 -29 -3 -10 -6 48 -9 70 -41 70 -100 0 -80 -21 -113 -72 -113 -55 0
-58 5 -58 97 0 70 3 89 18 100 9 8 11 11 3 7 -7 -3 -16 -2 -20 3 -3 5 -19 6
-36 2z"/>
<path d="M6109 932 c-15 -13 -20 -25 -16 -36 8 -21 29 -11 25 12 -2 9 8 22 22
29 17 8 19 13 9 13 -9 0 -27 -8 -40 -18z"/>
<path d="M6185 941 c18 -7 21 -20 25 -106 3 -66 9 -100 18 -103 9 -3 12 21 12
97 0 89 -2 101 -19 111 -11 5 -28 10 -38 9 -16 0 -16 -1 2 -8z"/>
<path d="M6690 921 c-34 -34 -45 -68 -36 -115 8 -40 56 -86 89 -85 l22 0 -22
9 c-48 20 -71 133 -37 185 13 20 25 25 55 25 33 0 41 -5 54 -30 33 -63 12
-179 -33 -181 -10 0 -12 -3 -5 -5 35 -15 93 57 93 114 0 98 -113 150 -180 83z"/>
<path d="M6945 939 c-16 -4 -22 -7 -12 -8 15 -1 17 -13 17 -94 0 -59 -4 -97
-12 -105 -9 -9 -6 -12 15 -12 l26 0 3 91 c3 87 5 93 30 112 26 20 28 20 47 3
12 -11 21 -14 26 -7 20 34 -39 42 -78 11 -24 -19 -26 -19 -29 -2 -2 14 -9 16
-33 11z"/>
<path d="M7145 939 c-16 -4 -22 -7 -12 -8 15 -1 17 -13 17 -94 0 -59 -4 -97
-12 -105 -9 -9 -6 -12 14 -12 l27 0 3 106 c2 58 1 109 -2 113 -3 4 -18 4 -35
0z"/>
<path d="M7235 943 c45 -11 55 -32 55 -118 0 -50 -5 -86 -12 -93 -9 -9 -6 -12
15 -12 l27 0 0 96 c0 80 3 99 18 111 15 13 15 13 -4 4 -17 -8 -25 -7 -34 4 -7
9 -28 15 -49 14 -21 -1 -28 -3 -16 -6z"/>
<path d="M7376 943 c36 -7 54 -36 60 -100 5 -45 3 -69 -9 -92 l-16 -32 27 3
27 3 0 91 c0 109 -14 135 -74 133 -21 -1 -27 -3 -15 -6z"/>
<path d="M7555 939 c-16 -4 -22 -7 -12 -8 15 -1 17 -12 17 -84 0 -99 14 -127
64 -127 18 0 41 7 52 15 17 13 16 13 -13 3 -53 -20 -67 3 -73 115 l-5 92 -30
-6z"/>
<path d="M7705 939 c-16 -4 -22 -7 -12 -8 17 -1 18 -10 16 -96 -2 -63 1 -99 9
-107 6 -6 14 -9 17 -6 3 3 4 54 3 114 l-3 109 -30 -6z"/>
<path d="M5081 822 c-42 -23 -55 -52 -35 -81 18 -25 71 -28 100 -6 18 14 18
15 -6 6 -36 -12 -70 3 -70 32 0 28 17 45 57 57 21 6 23 9 8 9 -11 1 -36 -7
-54 -17z"/>
<path d="M6120 821 c-38 -20 -51 -60 -29 -87 13 -16 67 -18 89 -3 12 8 10 10
-9 5 -33 -7 -61 10 -61 38 0 27 17 44 57 56 21 6 23 9 8 9 -11 1 -36 -7 -55
-18z"/>
</g>
</svg>
