<?xml version="1.0" standalone="no"?>
<!DOCTYPE svg PUBLIC "-//W3C//DTD SVG 20010904//EN"
 "http://www.w3.org/TR/2001/REC-SVG-20010904/DTD/svg10.dtd">
<svg version="1.0" xmlns="http://www.w3.org/2000/svg"
 width="354.000000pt" height="374.000000pt" viewBox="0 0 354.000000 374.000000"
 preserveAspectRatio="xMidYMid meet">

<g transform="translate(0.000000,374.000000) scale(0.100000,-0.100000)"
fill="#000000" stroke="none">
<path d="M0 1870 l0 -1870 1770 0 1770 0 0 1870 0 1870 -837 -1 c-461 -1 -813
-5 -783 -10 79 -11 110 -18 157 -40 24 -10 45 -19 48 -19 16 0 157 -104 194
-143 106 -111 187 -250 221 -377 6 -25 16 -59 21 -76 13 -44 11 -182 -4 -233
-8 -24 -23 -54 -35 -66 -22 -23 -256 -141 -347 -175 -11 -4 -41 -17 -67 -29
-27 -11 -69 -31 -95 -42 -47 -21 -77 -34 -118 -49 -11 -5 -41 -17 -67 -29 -54
-24 -61 -25 -86 -12 -9 5 -28 13 -42 19 -14 5 -46 19 -72 31 -26 12 -55 21
-63 21 -8 0 -15 5 -15 10 0 6 -4 10 -10 10 -5 0 -39 14 -75 30 -36 17 -70 30
-75 30 -6 0 -18 4 -28 9 -9 5 -37 18 -62 29 -250 111 -286 130 -298 157 -14
31 -16 277 -3 321 5 16 14 54 21 84 32 139 104 253 226 358 77 66 175 130 234
151 19 7 44 17 55 22 11 4 36 10 55 12 19 2 -331 5 -777 5 l-813 2 0 -1870z
m177 1109 c15 -6 37 -15 48 -19 11 -4 38 -16 60 -25 22 -10 54 -23 70 -30 17
-7 51 -22 77 -34 26 -11 55 -21 63 -21 8 0 15 -4 15 -10 0 -5 7 -10 15 -10 8
0 23 -4 33 -9 9 -5 28 -13 42 -19 14 -5 45 -19 70 -30 25 -11 63 -28 85 -37
22 -9 65 -28 95 -42 30 -14 74 -34 98 -44 23 -10 63 -29 90 -40 26 -12 56 -25
67 -29 26 -10 109 -47 158 -71 22 -11 45 -19 53 -19 8 0 14 -4 14 -10 0 -5 6
-10 14 -10 8 0 31 -9 53 -19 21 -11 70 -34 108 -51 39 -18 90 -41 115 -52 25
-11 56 -25 70 -30 14 -6 33 -14 42 -19 23 -11 53 -11 76 0 9 5 28 13 42 19 14
5 45 19 70 30 25 11 63 28 85 37 22 9 65 28 95 42 30 14 73 33 95 43 47 21
212 98 237 111 10 5 22 9 28 9 10 0 86 31 123 51 9 5 25 13 35 18 25 13 114
52 137 61 21 8 148 66 177 81 10 5 24 9 32 9 13 0 28 7 134 59 24 11 48 21 53
21 5 0 31 9 57 21 26 12 56 24 67 29 35 13 79 32 97 41 28 14 86 11 112 -6 14
-9 26 -30 30 -48 7 -37 -12 -205 -43 -377 -5 -30 -12 -77 -16 -105 -3 -27 -10
-66 -15 -85 -5 -19 -14 -62 -20 -95 -20 -103 -24 -108 -73 -100 -23 4 -55 12
-70 18 -28 12 -29 13 -23 82 2 39 9 95 15 125 46 262 48 279 21 308 -17 18
-28 22 -53 17 -46 -9 -150 -46 -161 -56 -6 -5 -16 -9 -23 -9 -12 0 -85 -30
-125 -51 -10 -5 -24 -9 -32 -9 -8 0 -31 -8 -53 -19 -35 -17 -60 -29 -178 -81
-25 -11 -65 -29 -90 -40 -25 -11 -65 -29 -90 -40 -25 -11 -66 -30 -92 -41 -27
-12 -57 -25 -68 -29 -11 -4 -41 -17 -67 -29 -27 -11 -69 -31 -95 -42 -27 -12
-75 -34 -107 -50 -32 -16 -65 -29 -72 -29 -8 0 -14 -4 -14 -10 0 -5 -7 -10
-15 -10 -8 0 -36 -10 -60 -21 l-46 -21 3 -917 c2 -504 6 -921 11 -928 7 -12
44 4 152 67 43 25 153 84 225 120 71 36 81 41 119 63 20 11 68 37 106 57 80
41 118 63 125 70 3 3 52 29 110 59 58 29 107 56 110 60 5 6 66 40 117 65 13 6
23 14 23 19 0 4 7 7 15 7 18 0 37 44 54 125 7 33 16 76 21 95 4 19 14 67 20
105 7 39 14 75 15 81 4 12 150 29 166 18 11 -6 10 -19 -11 -129 -23 -125 -30
-163 -35 -210 -4 -27 -10 -59 -15 -70 -4 -11 -13 -39 -20 -62 -9 -31 -24 -49
-51 -68 -21 -14 -43 -25 -49 -25 -5 0 -10 -4 -10 -10 0 -5 -9 -10 -20 -10 -11
0 -20 -4 -20 -9 0 -5 -8 -11 -17 -14 -20 -7 -95 -49 -158 -88 -22 -13 -53 -31
-70 -39 -16 -8 -32 -17 -35 -20 -3 -3 -30 -18 -60 -33 -30 -15 -75 -39 -100
-54 -92 -53 -116 -67 -175 -97 -33 -16 -62 -33 -65 -36 -5 -5 -62 -36 -132
-71 -66 -33 -78 -39 -117 -62 -89 -51 -303 -157 -316 -157 -8 0 -15 4 -15 8 0
4 -17 14 -37 21 -21 8 -50 22 -65 32 -14 11 -33 19 -42 19 -9 0 -16 3 -16 8 0
4 -10 12 -23 18 -48 24 -254 132 -292 154 -22 13 -73 41 -114 62 -41 21 -79
42 -85 47 -11 9 -57 34 -201 110 -38 20 -83 45 -98 56 -39 25 -81 49 -147 82
-30 15 -61 33 -67 39 -7 7 -38 25 -68 39 -30 15 -65 37 -76 49 -23 24 -49 88
-49 123 0 12 -4 24 -9 27 -4 3 -11 27 -15 53 -3 27 -10 73 -16 103 -6 30 -13
89 -16 131 l-6 76 32 12 c18 6 52 11 76 11 53 0 65 -17 76 -110 9 -73 22 -146
37 -205 6 -22 13 -53 17 -68 7 -29 40 -59 107 -96 20 -12 52 -30 71 -40 18
-11 44 -25 57 -33 13 -7 26 -15 29 -18 3 -3 32 -19 65 -36 100 -51 190 -99
195 -104 3 -3 23 -14 45 -26 68 -35 120 -65 130 -75 5 -5 17 -9 27 -9 10 0 18
-4 18 -10 0 -5 9 -10 19 -10 11 0 21 -3 23 -7 3 -8 34 -25 153 -87 33 -17 62
-33 65 -36 15 -15 128 -68 134 -63 3 4 6 419 6 923 0 861 -1 918 -17 931 -10
8 -29 20 -43 26 -51 22 -117 52 -202 92 -47 23 -91 41 -98 41 -7 0 -24 8 -38
18 -15 11 -48 25 -74 33 -27 7 -48 17 -48 21 0 4 -6 8 -14 8 -7 0 -40 13 -72
29 -55 27 -85 40 -199 91 -118 52 -143 64 -178 81 -22 11 -45 19 -53 19 -8 0
-22 4 -32 9 -9 5 -38 18 -64 30 -27 12 -69 31 -95 42 -27 12 -59 26 -73 31
-14 6 -33 14 -42 19 -33 17 -65 10 -83 -17 -14 -22 -16 -41 -11 -108 3 -44 10
-110 16 -146 18 -112 24 -249 11 -264 -6 -8 -26 -17 -44 -20 -18 -4 -44 -9
-58 -12 -34 -7 -41 5 -51 81 -4 33 -13 85 -18 115 -6 30 -15 80 -20 110 -6 30
-15 80 -20 110 -23 118 -31 179 -36 279 -6 101 -6 105 17 122 27 21 85 24 126
8z m3141 -940 c55 -23 73 -34 110 -69 64 -62 86 -119 86 -227 0 -127 -28 -178
-150 -273 -38 -30 -76 -40 -149 -40 -69 0 -87 4 -155 33 -97 42 -170 153 -170
260 0 136 76 255 200 314 47 23 176 24 228 2z m-2846 -13 c52 -24 128 -87 128
-105 0 -5 6 -16 13 -23 25 -27 57 -118 57 -166 0 -59 -51 -161 -105 -211 -39
-36 -60 -48 -138 -80 -33 -13 -150 -15 -175 -2 -9 5 -34 17 -55 26 -53 23
-147 118 -147 150 0 7 -4 17 -10 20 -15 9 -13 201 3 227 35 61 97 128 146 160
41 26 53 28 138 28 77 0 101 -4 145 -24z"/>
</g>
</svg>
